<mxfile host="www.draw.io" modified="2020-03-02T13:54:00.068Z" agent="Mozilla/5.0 (X11; Linux x86_64) AppleWebKit/537.36 (KHTML, like Gecko) Chrome/80.0.3987.87 Safari/537.36" etag="ZJf9EiwagFSuLUbxYRIg" version="12.7.9" type="github">
  <diagram id="C5RBs43oDa-KdzZeNtuy" name="Page-1">
    <mxGraphModel dx="1031" dy="682" grid="1" gridSize="10" guides="1" tooltips="1" connect="1" arrows="1" fold="1" page="1" pageScale="1" pageWidth="827" pageHeight="1169" math="0" shadow="0">
      <root>
        <mxCell id="WIyWlLk6GJQsqaUBKTNV-0" />
        <mxCell id="WIyWlLk6GJQsqaUBKTNV-1" parent="WIyWlLk6GJQsqaUBKTNV-0" />
        <mxCell id="zcZDxRXBqw4MgMwUMdOv-68" value="" style="rounded=0;whiteSpace=wrap;html=1;fillColor=none;" parent="WIyWlLk6GJQsqaUBKTNV-1" vertex="1">
          <mxGeometry x="180" y="280" width="190" height="320" as="geometry" />
        </mxCell>
        <mxCell id="zcZDxRXBqw4MgMwUMdOv-3" value="" style="rounded=0;whiteSpace=wrap;html=1;fillColor=none;" parent="WIyWlLk6GJQsqaUBKTNV-1" vertex="1">
          <mxGeometry x="160" y="240" width="480" height="380" as="geometry" />
        </mxCell>
        <mxCell id="zcZDxRXBqw4MgMwUMdOv-63" value="" style="rounded=0;whiteSpace=wrap;html=1;fillColor=none;dashed=1;" parent="WIyWlLk6GJQsqaUBKTNV-1" vertex="1">
          <mxGeometry x="196" y="490" width="140" height="93.19" as="geometry" />
        </mxCell>
        <mxCell id="zcZDxRXBqw4MgMwUMdOv-67" value="" style="rounded=0;whiteSpace=wrap;html=1;fillColor=none;" parent="WIyWlLk6GJQsqaUBKTNV-1" vertex="1">
          <mxGeometry x="430" y="280" width="190" height="320" as="geometry" />
        </mxCell>
        <mxCell id="zcZDxRXBqw4MgMwUMdOv-57" style="edgeStyle=orthogonalEdgeStyle;rounded=0;orthogonalLoop=1;jettySize=auto;html=1;entryX=1;entryY=0.5;entryDx=0;entryDy=0;" parent="WIyWlLk6GJQsqaUBKTNV-1" source="zcZDxRXBqw4MgMwUMdOv-26" target="zcZDxRXBqw4MgMwUMdOv-61" edge="1">
          <mxGeometry relative="1" as="geometry" />
        </mxCell>
        <mxCell id="zcZDxRXBqw4MgMwUMdOv-58" style="edgeStyle=orthogonalEdgeStyle;rounded=0;orthogonalLoop=1;jettySize=auto;html=1;exitX=0;exitY=0.5;exitDx=0;exitDy=0;" parent="WIyWlLk6GJQsqaUBKTNV-1" edge="1">
          <mxGeometry relative="1" as="geometry">
            <mxPoint x="406" y="420" as="sourcePoint" />
            <Array as="points">
              <mxPoint x="356" y="420.19" />
              <mxPoint x="356" y="463.19000000000005" />
              <mxPoint x="266" y="463.19000000000005" />
            </Array>
            <mxPoint x="266" y="500" as="targetPoint" />
          </mxGeometry>
        </mxCell>
        <mxCell id="zcZDxRXBqw4MgMwUMdOv-26" value="" style="rounded=0;whiteSpace=wrap;html=1;fillColor=none;dashed=1;" parent="WIyWlLk6GJQsqaUBKTNV-1" vertex="1">
          <mxGeometry x="454" y="330" width="140" height="180" as="geometry" />
        </mxCell>
        <mxCell id="zcZDxRXBqw4MgMwUMdOv-8" style="edgeStyle=orthogonalEdgeStyle;rounded=0;orthogonalLoop=1;jettySize=auto;html=1;exitX=0.5;exitY=1;exitDx=0;exitDy=0;" parent="WIyWlLk6GJQsqaUBKTNV-1" source="zcZDxRXBqw4MgMwUMdOv-4" target="zcZDxRXBqw4MgMwUMdOv-7" edge="1">
          <mxGeometry relative="1" as="geometry" />
        </mxCell>
        <mxCell id="zcZDxRXBqw4MgMwUMdOv-4" value="sshrs&lt;br&gt;to the RPi." style="ellipse;whiteSpace=wrap;html=1;" parent="WIyWlLk6GJQsqaUBKTNV-1" vertex="1">
          <mxGeometry x="180" y="40" width="120" height="80" as="geometry" />
        </mxCell>
        <mxCell id="zcZDxRXBqw4MgMwUMdOv-6" style="edgeStyle=orthogonalEdgeStyle;rounded=0;orthogonalLoop=1;jettySize=auto;html=1;exitX=0.5;exitY=1;exitDx=0;exitDy=0;entryX=0.5;entryY=0;entryDx=0;entryDy=0;" parent="WIyWlLk6GJQsqaUBKTNV-1" source="zcZDxRXBqw4MgMwUMdOv-5" target="zcZDxRXBqw4MgMwUMdOv-3" edge="1">
          <mxGeometry relative="1" as="geometry">
            <Array as="points">
              <mxPoint x="580" y="170" />
              <mxPoint x="400" y="170" />
            </Array>
          </mxGeometry>
        </mxCell>
        <mxCell id="zcZDxRXBqw4MgMwUMdOv-5" value="run&lt;br&gt;roscore on host" style="ellipse;whiteSpace=wrap;html=1;" parent="WIyWlLk6GJQsqaUBKTNV-1" vertex="1">
          <mxGeometry x="520" y="40" width="120" height="80" as="geometry" />
        </mxCell>
        <mxCell id="zcZDxRXBqw4MgMwUMdOv-10" style="edgeStyle=orthogonalEdgeStyle;rounded=0;orthogonalLoop=1;jettySize=auto;html=1;exitX=0.5;exitY=1;exitDx=0;exitDy=0;entryX=0.5;entryY=0;entryDx=0;entryDy=0;" parent="WIyWlLk6GJQsqaUBKTNV-1" source="zcZDxRXBqw4MgMwUMdOv-7" target="zcZDxRXBqw4MgMwUMdOv-3" edge="1">
          <mxGeometry relative="1" as="geometry">
            <Array as="points">
              <mxPoint x="240" y="170" />
              <mxPoint x="400" y="170" />
            </Array>
          </mxGeometry>
        </mxCell>
        <mxCell id="zcZDxRXBqw4MgMwUMdOv-7" value="run&amp;nbsp;&lt;br&gt;rosbu (ROS Buildup)" style="rounded=0;whiteSpace=wrap;html=1;" parent="WIyWlLk6GJQsqaUBKTNV-1" vertex="1">
          <mxGeometry x="180" y="140" width="120" height="60" as="geometry" />
        </mxCell>
        <mxCell id="zcZDxRXBqw4MgMwUMdOv-13" value="odometery data" style="rounded=1;whiteSpace=wrap;html=1;" parent="WIyWlLk6GJQsqaUBKTNV-1" vertex="1">
          <mxGeometry x="464" y="340" width="120" height="30" as="geometry" />
        </mxCell>
        <mxCell id="zcZDxRXBqw4MgMwUMdOv-14" value="occupancy data" style="rounded=1;whiteSpace=wrap;html=1;" parent="WIyWlLk6GJQsqaUBKTNV-1" vertex="1">
          <mxGeometry x="464" y="380" width="120" height="30" as="geometry" />
        </mxCell>
        <mxCell id="zcZDxRXBqw4MgMwUMdOv-15" value="laser scan data" style="rounded=1;whiteSpace=wrap;html=1;" parent="WIyWlLk6GJQsqaUBKTNV-1" vertex="1">
          <mxGeometry x="464" y="420" width="120" height="30" as="geometry" />
        </mxCell>
        <mxCell id="zcZDxRXBqw4MgMwUMdOv-16" value="geometry data&lt;br&gt;(pitch, roll, yaw)" style="rounded=1;whiteSpace=wrap;html=1;" parent="WIyWlLk6GJQsqaUBKTNV-1" vertex="1">
          <mxGeometry x="464" y="460" width="120" height="40" as="geometry" />
        </mxCell>
        <mxCell id="zcZDxRXBqw4MgMwUMdOv-27" value="publisher" style="text;html=1;strokeColor=none;fillColor=none;align=center;verticalAlign=middle;whiteSpace=wrap;rounded=0;" parent="WIyWlLk6GJQsqaUBKTNV-1" vertex="1">
          <mxGeometry x="464" y="310" width="120" height="20" as="geometry" />
        </mxCell>
        <mxCell id="zcZDxRXBqw4MgMwUMdOv-75" style="edgeStyle=orthogonalEdgeStyle;rounded=0;orthogonalLoop=1;jettySize=auto;html=1;fontSize=18;" parent="WIyWlLk6GJQsqaUBKTNV-1" source="zcZDxRXBqw4MgMwUMdOv-32" edge="1">
          <mxGeometry relative="1" as="geometry">
            <mxPoint x="400" y="200" as="targetPoint" />
            <Array as="points">
              <mxPoint x="680" y="700" />
              <mxPoint x="680" y="200" />
              <mxPoint x="400" y="200" />
            </Array>
          </mxGeometry>
        </mxCell>
        <mxCell id="zcZDxRXBqw4MgMwUMdOv-78" style="edgeStyle=orthogonalEdgeStyle;rounded=0;orthogonalLoop=1;jettySize=auto;html=1;fontSize=18;entryX=0.5;entryY=0;entryDx=0;entryDy=0;exitX=0.494;exitY=0.97;exitDx=0;exitDy=0;exitPerimeter=0;" parent="WIyWlLk6GJQsqaUBKTNV-1" source="zcZDxRXBqw4MgMwUMdOv-32" target="knw3AjLk6tcEtiCgiurI-2" edge="1">
          <mxGeometry relative="1" as="geometry">
            <mxPoint x="400.01" y="780" as="targetPoint" />
            <Array as="points">
              <mxPoint x="399" y="780" />
              <mxPoint x="250" y="780" />
            </Array>
          </mxGeometry>
        </mxCell>
        <mxCell id="zcZDxRXBqw4MgMwUMdOv-32" value="mapping completed?&lt;br&gt;100% area mapped" style="html=1;whiteSpace=wrap;aspect=fixed;shape=isoRectangle;fillColor=#ffffff;" parent="WIyWlLk6GJQsqaUBKTNV-1" vertex="1">
          <mxGeometry x="316.66999999999996" y="650" width="166.67" height="100" as="geometry" />
        </mxCell>
        <mxCell id="zcZDxRXBqw4MgMwUMdOv-59" style="edgeStyle=orthogonalEdgeStyle;rounded=0;orthogonalLoop=1;jettySize=auto;html=1;exitX=1;exitY=0.5;exitDx=0;exitDy=0;entryX=0;entryY=0.5;entryDx=0;entryDy=0;" parent="WIyWlLk6GJQsqaUBKTNV-1" source="zcZDxRXBqw4MgMwUMdOv-35" target="zcZDxRXBqw4MgMwUMdOv-53" edge="1">
          <mxGeometry relative="1" as="geometry" />
        </mxCell>
        <mxCell id="zcZDxRXBqw4MgMwUMdOv-35" value="direction calculator" style="rounded=1;whiteSpace=wrap;html=1;" parent="WIyWlLk6GJQsqaUBKTNV-1" vertex="1">
          <mxGeometry x="206" y="500" width="120" height="35" as="geometry" />
        </mxCell>
        <mxCell id="zcZDxRXBqw4MgMwUMdOv-36" value="mapping" style="rounded=1;whiteSpace=wrap;html=1;" parent="WIyWlLk6GJQsqaUBKTNV-1" vertex="1">
          <mxGeometry x="206" y="402.5" width="120" height="35" as="geometry" />
        </mxCell>
        <mxCell id="zcZDxRXBqw4MgMwUMdOv-48" style="edgeStyle=orthogonalEdgeStyle;rounded=0;orthogonalLoop=1;jettySize=auto;html=1;exitX=0.5;exitY=1;exitDx=0;exitDy=0;" parent="WIyWlLk6GJQsqaUBKTNV-1" source="zcZDxRXBqw4MgMwUMdOv-26" target="zcZDxRXBqw4MgMwUMdOv-26" edge="1">
          <mxGeometry relative="1" as="geometry" />
        </mxCell>
        <mxCell id="zcZDxRXBqw4MgMwUMdOv-51" value="subscriber" style="text;html=1;strokeColor=none;fillColor=none;align=center;verticalAlign=middle;whiteSpace=wrap;rounded=0;" parent="WIyWlLk6GJQsqaUBKTNV-1" vertex="1">
          <mxGeometry x="464" y="510" width="120" height="20" as="geometry" />
        </mxCell>
        <mxCell id="zcZDxRXBqw4MgMwUMdOv-52" value="mBot movement" style="rounded=1;whiteSpace=wrap;html=1;" parent="WIyWlLk6GJQsqaUBKTNV-1" vertex="1">
          <mxGeometry x="464" y="543.19" width="120" height="30" as="geometry" />
        </mxCell>
        <mxCell id="zcZDxRXBqw4MgMwUMdOv-53" value="" style="rounded=0;whiteSpace=wrap;html=1;fillColor=none;dashed=1;" parent="WIyWlLk6GJQsqaUBKTNV-1" vertex="1">
          <mxGeometry x="454" y="533.19" width="140" height="50" as="geometry" />
        </mxCell>
        <mxCell id="zcZDxRXBqw4MgMwUMdOv-60" value="subscriber" style="text;html=1;strokeColor=none;fillColor=none;align=center;verticalAlign=middle;whiteSpace=wrap;rounded=0;" parent="WIyWlLk6GJQsqaUBKTNV-1" vertex="1">
          <mxGeometry x="206" y="373.19" width="120" height="20" as="geometry" />
        </mxCell>
        <mxCell id="zcZDxRXBqw4MgMwUMdOv-61" value="" style="rounded=0;whiteSpace=wrap;html=1;fillColor=none;dashed=1;" parent="WIyWlLk6GJQsqaUBKTNV-1" vertex="1">
          <mxGeometry x="196" y="395" width="140" height="50" as="geometry" />
        </mxCell>
        <mxCell id="zcZDxRXBqw4MgMwUMdOv-62" value="publisher" style="text;html=1;strokeColor=none;fillColor=none;align=center;verticalAlign=middle;whiteSpace=wrap;rounded=0;" parent="WIyWlLk6GJQsqaUBKTNV-1" vertex="1">
          <mxGeometry x="250" y="470" width="120" height="20" as="geometry" />
        </mxCell>
        <mxCell id="zcZDxRXBqw4MgMwUMdOv-70" value="&lt;b&gt;&lt;font style=&quot;font-size: 14px&quot;&gt;TURTLEBOT3&lt;/font&gt;&lt;/b&gt;" style="text;html=1;strokeColor=none;fillColor=none;align=center;verticalAlign=middle;whiteSpace=wrap;rounded=0;" parent="WIyWlLk6GJQsqaUBKTNV-1" vertex="1">
          <mxGeometry x="505" y="280" width="40" height="30" as="geometry" />
        </mxCell>
        <mxCell id="zcZDxRXBqw4MgMwUMdOv-71" value="&lt;b&gt;&lt;font style=&quot;font-size: 14px&quot;&gt;ROS MASTER&lt;/font&gt;&lt;/b&gt;" style="text;html=1;strokeColor=none;fillColor=none;align=center;verticalAlign=middle;whiteSpace=wrap;rounded=0;" parent="WIyWlLk6GJQsqaUBKTNV-1" vertex="1">
          <mxGeometry x="216" y="280" width="100" height="30" as="geometry" />
        </mxCell>
        <mxCell id="zcZDxRXBqw4MgMwUMdOv-72" value="RUN AUTONAV.PY" style="text;html=1;strokeColor=none;fillColor=none;align=center;verticalAlign=middle;whiteSpace=wrap;rounded=0;fontSize=18;fontStyle=1" parent="WIyWlLk6GJQsqaUBKTNV-1" vertex="1">
          <mxGeometry x="305" y="250" width="190" height="20" as="geometry" />
        </mxCell>
        <mxCell id="zcZDxRXBqw4MgMwUMdOv-77" value="NO" style="text;html=1;strokeColor=none;fillColor=none;align=center;verticalAlign=middle;whiteSpace=wrap;rounded=0;fontSize=18;" parent="WIyWlLk6GJQsqaUBKTNV-1" vertex="1">
          <mxGeometry x="495" y="670" width="40" height="20" as="geometry" />
        </mxCell>
        <mxCell id="zcZDxRXBqw4MgMwUMdOv-79" value="YES" style="text;html=1;strokeColor=none;fillColor=none;align=center;verticalAlign=middle;whiteSpace=wrap;rounded=0;fontSize=18;" parent="WIyWlLk6GJQsqaUBKTNV-1" vertex="1">
          <mxGeometry x="265" y="670" width="40" height="20" as="geometry" />
        </mxCell>
        <mxCell id="knw3AjLk6tcEtiCgiurI-17" style="edgeStyle=orthogonalEdgeStyle;rounded=0;orthogonalLoop=1;jettySize=auto;html=1;exitX=0.5;exitY=1;exitDx=0;exitDy=0;entryX=0.5;entryY=0;entryDx=0;entryDy=0;fontSize=11;" parent="WIyWlLk6GJQsqaUBKTNV-1" source="knw3AjLk6tcEtiCgiurI-14" target="knw3AjLk6tcEtiCgiurI-16" edge="1">
          <mxGeometry relative="1" as="geometry">
            <Array as="points">
              <mxPoint x="250" y="1000" />
              <mxPoint x="400" y="1000" />
            </Array>
          </mxGeometry>
        </mxCell>
        <mxCell id="zcZDxRXBqw4MgMwUMdOv-81" value="" style="rounded=0;whiteSpace=wrap;html=1;fillColor=none;" parent="WIyWlLk6GJQsqaUBKTNV-1" vertex="1">
          <mxGeometry x="160" y="800" width="480" height="220" as="geometry" />
        </mxCell>
        <mxCell id="zcZDxRXBqw4MgMwUMdOv-82" value="RUN TARGET.PY" style="text;html=1;strokeColor=none;fillColor=none;align=center;verticalAlign=middle;whiteSpace=wrap;rounded=0;fontSize=18;fontStyle=1" parent="WIyWlLk6GJQsqaUBKTNV-1" vertex="1">
          <mxGeometry x="305" y="810" width="190" height="20" as="geometry" />
        </mxCell>
        <mxCell id="knw3AjLk6tcEtiCgiurI-10" style="edgeStyle=orthogonalEdgeStyle;rounded=0;orthogonalLoop=1;jettySize=auto;html=1;exitX=1;exitY=0.5;exitDx=0;exitDy=0;entryX=0;entryY=0.5;entryDx=0;entryDy=0;" parent="WIyWlLk6GJQsqaUBKTNV-1" source="knw3AjLk6tcEtiCgiurI-2" target="knw3AjLk6tcEtiCgiurI-4" edge="1">
          <mxGeometry relative="1" as="geometry" />
        </mxCell>
        <mxCell id="knw3AjLk6tcEtiCgiurI-2" value="IR camera start" style="rounded=1;whiteSpace=wrap;html=1;" parent="WIyWlLk6GJQsqaUBKTNV-1" vertex="1">
          <mxGeometry x="190" y="852.5" width="120" height="35" as="geometry" />
        </mxCell>
        <mxCell id="knw3AjLk6tcEtiCgiurI-11" style="edgeStyle=orthogonalEdgeStyle;rounded=0;orthogonalLoop=1;jettySize=auto;html=1;exitX=1;exitY=0.5;exitDx=0;exitDy=0;entryX=0;entryY=0.5;entryDx=0;entryDy=0;" parent="WIyWlLk6GJQsqaUBKTNV-1" source="knw3AjLk6tcEtiCgiurI-4" target="knw3AjLk6tcEtiCgiurI-5" edge="1">
          <mxGeometry relative="1" as="geometry" />
        </mxCell>
        <mxCell id="knw3AjLk6tcEtiCgiurI-4" value="Mbot rotate 360 degree to find strongest IR signal" style="rounded=1;whiteSpace=wrap;html=1;fontSize=11;" parent="WIyWlLk6GJQsqaUBKTNV-1" vertex="1">
          <mxGeometry x="340" y="840" width="120" height="60" as="geometry" />
        </mxCell>
        <mxCell id="knw3AjLk6tcEtiCgiurI-12" style="edgeStyle=orthogonalEdgeStyle;rounded=0;orthogonalLoop=1;jettySize=auto;html=1;exitX=0.5;exitY=1;exitDx=0;exitDy=0;entryX=0.5;entryY=0;entryDx=0;entryDy=0;" parent="WIyWlLk6GJQsqaUBKTNV-1" source="knw3AjLk6tcEtiCgiurI-5" target="knw3AjLk6tcEtiCgiurI-6" edge="1">
          <mxGeometry relative="1" as="geometry" />
        </mxCell>
        <mxCell id="knw3AjLk6tcEtiCgiurI-5" value="position robot according to the strongest IR signal" style="rounded=1;whiteSpace=wrap;html=1;fontSize=11;" parent="WIyWlLk6GJQsqaUBKTNV-1" vertex="1">
          <mxGeometry x="495" y="840" width="120" height="60" as="geometry" />
        </mxCell>
        <mxCell id="knw3AjLk6tcEtiCgiurI-13" style="edgeStyle=orthogonalEdgeStyle;rounded=0;orthogonalLoop=1;jettySize=auto;html=1;exitX=0;exitY=0.5;exitDx=0;exitDy=0;entryX=1;entryY=0.5;entryDx=0;entryDy=0;" parent="WIyWlLk6GJQsqaUBKTNV-1" source="knw3AjLk6tcEtiCgiurI-6" target="knw3AjLk6tcEtiCgiurI-7" edge="1">
          <mxGeometry relative="1" as="geometry" />
        </mxCell>
        <mxCell id="knw3AjLk6tcEtiCgiurI-6" value="&lt;span style=&quot;white-space: normal&quot;&gt;shooter IR sensor moves down to detect the strongest IR value&lt;/span&gt;" style="rounded=1;whiteSpace=wrap;html=1;fontSize=11;" parent="WIyWlLk6GJQsqaUBKTNV-1" vertex="1">
          <mxGeometry x="495" y="920" width="120" height="60" as="geometry" />
        </mxCell>
        <mxCell id="knw3AjLk6tcEtiCgiurI-15" style="edgeStyle=orthogonalEdgeStyle;rounded=0;orthogonalLoop=1;jettySize=auto;html=1;exitX=0;exitY=0.5;exitDx=0;exitDy=0;entryX=1;entryY=0.5;entryDx=0;entryDy=0;fontSize=11;" parent="WIyWlLk6GJQsqaUBKTNV-1" source="knw3AjLk6tcEtiCgiurI-7" target="knw3AjLk6tcEtiCgiurI-14" edge="1">
          <mxGeometry relative="1" as="geometry" />
        </mxCell>
        <mxCell id="knw3AjLk6tcEtiCgiurI-7" value="shooter aims to the direction with the strongest IR value" style="rounded=1;whiteSpace=wrap;html=1;fontSize=11;" parent="WIyWlLk6GJQsqaUBKTNV-1" vertex="1">
          <mxGeometry x="340" y="920" width="120" height="60" as="geometry" />
        </mxCell>
        <mxCell id="knw3AjLk6tcEtiCgiurI-14" value="&lt;b&gt;FIRES THE BALL&lt;/b&gt;" style="rounded=1;whiteSpace=wrap;html=1;" parent="WIyWlLk6GJQsqaUBKTNV-1" vertex="1">
          <mxGeometry x="190" y="932.5" width="120" height="35" as="geometry" />
        </mxCell>
        <mxCell id="knw3AjLk6tcEtiCgiurI-16" value="EXIT PROGRAM" style="rounded=0;whiteSpace=wrap;html=1;" parent="WIyWlLk6GJQsqaUBKTNV-1" vertex="1">
          <mxGeometry x="340" y="1050" width="120" height="60" as="geometry" />
        </mxCell>
        <mxCell id="HJ1R99LDaTgZ_s5msxlx-1" style="edgeStyle=orthogonalEdgeStyle;rounded=0;orthogonalLoop=1;jettySize=auto;html=1;exitX=0.5;exitY=1;exitDx=0;exitDy=0;entryX=0.495;entryY=-0.001;entryDx=0;entryDy=0;entryPerimeter=0;" parent="WIyWlLk6GJQsqaUBKTNV-1" source="HJ1R99LDaTgZ_s5msxlx-0" target="zcZDxRXBqw4MgMwUMdOv-32" edge="1">
          <mxGeometry relative="1" as="geometry">
            <mxPoint x="399" y="630" as="targetPoint" />
            <Array as="points">
              <mxPoint x="266" y="610" />
              <mxPoint x="399" y="610" />
            </Array>
          </mxGeometry>
        </mxCell>
        <mxCell id="HJ1R99LDaTgZ_s5msxlx-0" value="progress calculator" style="rounded=1;whiteSpace=wrap;html=1;" parent="WIyWlLk6GJQsqaUBKTNV-1" vertex="1">
          <mxGeometry x="206" y="540.69" width="120" height="35" as="geometry" />
        </mxCell>
      </root>
    </mxGraphModel>
  </diagram>
</mxfile>
